<svg width="27" height="34" viewBox="0 0 27 34" fill="none" xmlns="http://www.w3.org/2000/svg">
<g clip-path="url(#clip0_1579_1058)">
<path d="M25.01 2.96H17.45V1.3C17.45 0.55 16.91 0 16.15 0H10.22C9.48 0 8.92 0.56 8.92 1.3V2.96H1.3C0.56 2.96 0 3.52 0 4.26V8C0 8.74 0.56 9.3 1.3 9.3H2.25V30.56C2.25 32.14 3.64 33.42 5.33 33.42H21.04C22.74 33.42 24.12 32.14 24.12 30.56V9.3H25.01C25.76 9.3 26.32 8.74 26.32 8V4.26C26.32 3.52 25.76 2.96 25.01 2.96ZM11.53 2.6H14.85V2.96H11.53V2.6ZM21.52 30.56C21.52 30.75 21.3 30.93 21.04 30.93H5.33C5.08 30.93 4.86 30.75 4.86 30.56V9.3H21.52V30.56ZM23.71 6.69H2.6V5.57H23.71V6.69Z" fill="white"/>
<path d="M18.9098 13.3301V26.7901C18.9098 27.5001 18.3498 28.0401 17.5998 28.0401C16.8498 28.0401 16.2998 27.5001 16.2998 26.7901V13.3301C16.2998 12.6201 16.8598 12.0801 17.5998 12.0801C18.3398 12.0801 18.9098 12.6201 18.9098 13.3301Z" fill="white"/>
<path d="M14.4599 13.3301V26.7901C14.4599 27.5001 13.8999 28.0401 13.1599 28.0401C12.4199 28.0401 11.8599 27.5001 11.8599 26.7901V13.3301C11.8599 12.6201 12.4199 12.0801 13.1599 12.0801C13.8999 12.0801 14.4599 12.6201 14.4599 13.3301Z" fill="white"/>
<path d="M10.0102 13.3301V26.7901C10.0102 27.5001 9.46016 28.0401 8.71016 28.0401C7.96016 28.0401 7.41016 27.5001 7.41016 26.7901V13.3301C7.41016 12.6201 7.97016 12.0801 8.71016 12.0801C9.45016 12.0801 10.0102 12.6201 10.0102 13.3301Z" fill="white"/>
</g>
<defs>
<clipPath id="clip0_1579_1058">
<rect width="26.32" height="33.42" fill="white"/>
</clipPath>
</defs>
</svg>
