<svg width="60" height="50" viewBox="0 0 60 50" fill="none" xmlns="http://www.w3.org/2000/svg">
<g clip-path="url(#clip0_1114_320)">
<path d="M59.56 28.76L51.56 18.76C51.18 18.28 50.6 18 50 18H38V14C38 12.9 37.1 12 36 12H24C24 5.4 18.6 0 12 0C5.4 0 0 5.4 0 12C0 15.54 1.54 18.72 4 20.92V44C4 45.1 4.9 46 6 46H10.34C11.18 48.32 13.4 50 16 50C18.6 50 20.82 48.32 21.66 46H40.36C41.2 48.32 43.42 50 46.02 50C48.62 50 50.84 48.32 51.68 46H58.02C59.12 46 60.02 45.1 60.02 44V30C60.02 29.54 59.86 29.1 59.58 28.76H59.56ZM6.92 18.2C5.14 16.74 4 14.52 4 12C4 7.56 7.56 4 12 4C16.44 4 20 7.56 20 12C20 16.44 16.44 20 12 20C10.3 20 8.74 19.48 7.44 18.6C7.28 18.44 7.1 18.3 6.9 18.2H6.92ZM16 46C14.88 46 14 45.12 14 44C14 42.88 14.88 42 16 42C17.12 42 18 42.88 18 44C18 45.12 17.12 46 16 46ZM34 42H21.66C20.82 39.68 18.6 38 16 38C13.4 38 11.18 39.68 10.34 42H8V23.3C9.26 23.74 10.6 24 12 24C17.2 24 21.66 20.66 23.3 16H34V42ZM46 22H49.04L55.44 30H46V22ZM46 46C44.88 46 44 45.12 44 44C44 42.88 44.88 42 46 42C47.12 42 48 42.88 48 44C48 45.12 47.12 46 46 46ZM56 42H51.66C50.82 39.68 48.6 38 46 38C43.4 38 41.18 39.68 40.34 42H38V22H42V32C42 33.1 42.9 34 44 34H56V42Z" fill="#4976B3"/>
<path d="M12.78 17.48C13.4 17.36 13.92 16.96 14.2 16.38L17.58 9.33999C18.06 8.33999 17.64 7.13999 16.64 6.67999C15.64 6.19999 14.46 6.61999 13.98 7.61999L11.76 12.24L9.34003 10.04C8.52003 9.29999 7.26003 9.35999 6.52003 10.18C5.78003 11 5.84003 12.26 6.66003 13L11.06 17C11.44 17.34 11.92 17.52 12.4 17.52C12.52 17.52 12.66 17.52 12.78 17.48Z" fill="#4976B3"/>
</g>
<defs>
<clipPath id="clip0_1114_320">
<rect width="60" height="50" fill="white"/>
</clipPath>
</defs>
</svg>
