<?xml version="1.0" encoding="utf-8"?>
<!-- Generator: Adobe Illustrator 27.0.0, SVG Export Plug-In . SVG Version: 6.00 Build 0)  -->
<svg version="1.1" id="Шар_1" xmlns="http://www.w3.org/2000/svg" xmlns:xlink="http://www.w3.org/1999/xlink" x="0px" y="0px"
	 viewBox="0 0 40 40" style="enable-background:new 0 0 40 40;" xml:space="preserve">
<style type="text/css">
	.st0{clip-path:url(#SVGID_00000013874606348083883540000008188120977152355457_);}
	.st1{fill:none;stroke:#6F6F6F;stroke-width:2;stroke-linecap:round;stroke-linejoin:round;stroke-miterlimit:10;}
	.st2{fill:#6F6F6F;}
</style>
<g>
	<defs>
		<rect id="SVGID_1_" y="0" width="40" height="40"/>
	</defs>
	<clipPath id="SVGID_00000095318877612223712210000018113435067596770451_">
		<use xlink:href="#SVGID_1_"  style="overflow:visible;"/>
	</clipPath>
	<g style="clip-path:url(#SVGID_00000095318877612223712210000018113435067596770451_);">
		<path class="st1" d="M20,38.7c10.3,0,18.7-8.4,18.7-18.7C38.7,9.7,30.3,1.3,20,1.3C9.7,1.3,1.3,9.7,1.3,20
			C1.3,30.3,9.7,38.7,20,38.7z"/>
		<path class="st2" d="M33.3,12c0-1.5-1.2-2.7-2.7-2.7H9.3c-1.5,0-2.7,1.2-2.7,2.7v16c0,1.5,1.2,2.7,2.7,2.7h21.3
			c1.5,0,2.7-1.2,2.7-2.7V12z M30.7,12L20,18.7L9.3,12H30.7z M30.7,28H9.3V14.7L20,21.3l10.7-6.7V28z"/>
	</g>
</g>
</svg>
