<svg width="24" height="24" viewBox="0 0 24 24" fill="none" xmlns="http://www.w3.org/2000/svg">
<g clip-path="url(#clip0_1577_1011)">
<path d="M13.3527 1.00742V2.64491C13.3527 3.34975 13.7977 3.95847 14.4527 4.16138C14.9368 4.31445 15.3889 4.50312 15.8054 4.72382C16.0261 4.83773 16.2753 4.89825 16.5245 4.89825C16.941 4.89825 17.3503 4.73094 17.6565 4.43192L18.8099 3.27499L20.7214 5.19015L19.5645 6.34708C19.0697 6.84189 18.9522 7.58944 19.2762 8.20884C19.5004 8.62889 19.6856 9.07743 19.8315 9.54376C20.0344 10.1952 20.6609 10.6508 21.348 10.6508H22.9855V13.3598H21.3444C20.6538 13.3598 20.0451 13.7977 19.8315 14.4527C19.8315 14.4598 19.8279 14.4669 19.8244 14.4705C19.6856 14.919 19.5004 15.3675 19.2762 15.7983C18.9522 16.4034 19.0733 17.1688 19.5645 17.6636L20.7214 18.8205L18.8099 20.7357L17.6494 19.5752C17.3503 19.2762 16.9374 19.1053 16.5209 19.1053C16.2682 19.1053 16.0154 19.1658 15.7876 19.2869C15.3782 19.504 14.9297 19.6927 14.4598 19.8422C13.7941 20.0487 13.3492 20.6574 13.3492 21.3622V22.9997H10.6437V21.3622C10.6437 20.6609 10.1988 20.0522 9.54376 19.8457C9.05963 19.6927 8.60754 19.504 8.19816 19.2869C7.9739 19.1694 7.72471 19.1089 7.47197 19.1089C7.05191 19.1089 6.63898 19.2797 6.33996 19.5788L5.18303 20.7357L3.26787 18.8205L4.4248 17.6636C4.91605 17.1724 5.03352 16.407 4.71314 15.8054C4.48532 15.3711 4.30021 14.9226 4.16138 14.4669C3.95847 13.8155 3.33195 13.3598 2.64491 13.3598H1.00742V10.6508H2.64135C3.33195 10.6508 3.95491 10.1952 4.16138 9.54376C4.30733 9.07743 4.49244 8.62889 4.72026 8.20528C5.0442 7.58944 4.92673 6.84189 4.42836 6.34708L3.27143 5.19015L5.18659 3.27499L6.34352 4.43192C6.64254 4.73094 7.05547 4.90181 7.47197 4.90181C7.72471 4.90181 7.97746 4.84129 8.20528 4.72026C8.62533 4.496 9.07387 4.31089 9.5402 4.16494C10.2023 3.95847 10.6473 3.34619 10.6473 2.64847V1.00742H13.3527ZM13.7728 0H10.2201C9.89617 0 9.63631 0.263423 9.63631 0.587363V2.64491C9.63631 2.89766 9.47612 3.12548 9.23762 3.20024C8.71433 3.36399 8.20884 3.57401 7.73183 3.82676C7.64996 3.86948 7.56096 3.89083 7.47197 3.89083C7.3189 3.89083 7.16939 3.83032 7.05547 3.7164L5.59953 2.26046C5.48561 2.14654 5.3361 2.08603 5.18303 2.08603C5.02996 2.08603 4.88401 2.14298 4.7701 2.26046L2.2569 4.77366C2.02907 5.00148 2.02907 5.3717 2.2569 5.59953L3.71285 7.05547C3.89083 7.23346 3.94067 7.50756 3.8232 7.73183C3.57045 8.20884 3.36043 8.71433 3.19668 9.23762C3.12192 9.47612 2.89054 9.63631 2.64135 9.63631H0.583803C0.259864 9.63631 0 9.89973 0 10.2237V13.7763C0 14.1003 0.259864 14.3637 0.583803 14.3637H2.64491C2.8941 14.3637 3.12548 14.5239 3.20024 14.7624C3.36043 15.2857 3.57045 15.7876 3.8232 16.2682C3.94067 16.4889 3.89083 16.7665 3.71285 16.9445L2.2569 18.4005C2.02907 18.6283 2.02907 18.9985 2.2569 19.2263L4.7701 21.7395C4.88401 21.8535 5.03352 21.914 5.18303 21.914C5.33254 21.914 5.48561 21.857 5.59953 21.7395L7.05547 20.2836C7.16939 20.1697 7.3189 20.1092 7.47197 20.1092C7.56096 20.1092 7.64996 20.1305 7.73183 20.1732C8.20884 20.426 8.71433 20.6325 9.23762 20.7998C9.47612 20.8745 9.63631 21.1023 9.63631 21.3551V23.4126C9.63631 23.7366 9.89617 24 10.2201 24H13.7728C14.0967 24 14.3601 23.7366 14.3601 23.4126V21.3551C14.3601 21.1023 14.5168 20.8745 14.7588 20.7998C15.2821 20.6325 15.784 20.426 16.2611 20.1732C16.3429 20.1305 16.4319 20.1092 16.5209 20.1092C16.674 20.1092 16.8235 20.1697 16.9374 20.2836L18.3969 21.7431C18.5108 21.857 18.6603 21.914 18.8099 21.914C18.9594 21.914 19.1124 21.857 19.2263 21.7395L21.736 19.2263C21.9638 18.9985 21.9638 18.6283 21.736 18.4005L20.28 16.9445C20.102 16.7665 20.0522 16.4889 20.1697 16.2682C20.4224 15.7876 20.6325 15.2857 20.7926 14.7624C20.871 14.5239 21.0988 14.3637 21.348 14.3637H23.4091C23.733 14.3637 23.9964 14.1003 23.9964 13.7763V10.2237C23.9964 9.89973 23.733 9.63631 23.4091 9.63631H21.3515C21.1023 9.63631 20.871 9.47612 20.7962 9.23762C20.6325 8.71433 20.4224 8.20884 20.1697 7.73183C20.0522 7.50756 20.102 7.23346 20.28 7.05547L21.736 5.59953C21.9638 5.3717 21.9638 5.00148 21.736 4.77366L19.2263 2.26046C19.1124 2.14298 18.9594 2.08603 18.8099 2.08603C18.6603 2.08603 18.5108 2.14298 18.3969 2.2569L16.941 3.7164C16.8271 3.82676 16.674 3.88727 16.5245 3.88727C16.439 3.88727 16.35 3.86592 16.2682 3.82676C15.7876 3.57401 15.2821 3.36755 14.7588 3.20024C14.5168 3.12548 14.3601 2.89766 14.3601 2.64491V0.587363C14.3601 0.263423 14.0967 0 13.7728 0Z" fill="white"/>
<path d="M7.88849 15.136C7.59302 15.136 7.35452 15.0434 7.18365 14.8547C7.01278 14.6661 6.92379 14.4133 6.92379 14.0929V12.9147C6.92379 12.8079 6.90955 12.7189 6.88107 12.6512C6.85259 12.5836 6.81699 12.5302 6.77072 12.491C6.72444 12.4519 6.6746 12.427 6.61765 12.4127C6.56069 12.3985 6.50373 12.3914 6.44678 12.3914V11.6153C6.50373 11.6153 6.56069 11.6082 6.61765 11.594C6.6746 11.5797 6.72444 11.5548 6.77072 11.5192C6.81699 11.4836 6.85259 11.4338 6.88107 11.3661C6.90955 11.2985 6.92379 11.2166 6.92379 11.117V9.9102C6.92379 9.58982 7.00922 9.33708 7.18365 9.14841C7.35808 8.95974 7.59302 8.86719 7.88849 8.86719H8.46873V9.60762H8.13767C8.0024 9.60762 7.9134 9.6539 7.87425 9.74289C7.83509 9.83189 7.81373 9.928 7.81373 10.0312V11.2095C7.81373 11.3448 7.78881 11.4623 7.74254 11.5584C7.69626 11.6545 7.6393 11.7328 7.56811 11.7969C7.50047 11.8574 7.42927 11.9037 7.35096 11.9393C7.2762 11.9713 7.20857 11.9927 7.15161 11.9962V12.0105C7.20857 12.014 7.27264 12.0318 7.35096 12.0603C7.42572 12.0888 7.49691 12.1351 7.56811 12.1956C7.63574 12.2561 7.6927 12.338 7.74254 12.4376C7.79237 12.5373 7.81373 12.6655 7.81373 12.8221V13.9719C7.81373 14.0751 7.83509 14.1713 7.87425 14.2602C7.9134 14.3492 8.0024 14.3955 8.13767 14.3955H8.46873V15.136H7.88849Z" fill="white"/>
<path d="M10.5941 13.4131C10.5941 13.6125 10.5229 13.7762 10.3841 13.9079C10.2453 14.0396 10.0779 14.1073 9.88572 14.1073C9.78605 14.1073 9.69349 14.0895 9.60806 14.0539C9.51906 14.0183 9.44431 13.9684 9.37667 13.9079C9.30904 13.8474 9.2592 13.7762 9.22004 13.6943C9.18088 13.6125 9.16309 13.5199 9.16309 13.4238C9.16309 13.3277 9.18088 13.2387 9.22004 13.1568C9.2592 13.0749 9.30904 12.9966 9.37667 12.9361C9.44431 12.8756 9.51906 12.8222 9.60806 12.783C9.69349 12.7439 9.78961 12.7261 9.88572 12.7261C10.0779 12.7261 10.2453 12.7937 10.3841 12.9254C10.5229 13.0571 10.5941 13.2209 10.5941 13.4202V13.4131Z" fill="white"/>
<path d="M12.7118 13.4131C12.7118 13.6125 12.6406 13.7762 12.5018 13.9079C12.3629 14.0396 12.1956 14.1073 12.0034 14.1073C11.9037 14.1073 11.8112 14.0895 11.7257 14.0539C11.6367 14.0183 11.562 13.9684 11.4943 13.9079C11.4267 13.8474 11.3769 13.7762 11.3377 13.6943C11.2986 13.6125 11.2808 13.5199 11.2808 13.4238C11.2808 13.3277 11.2986 13.2387 11.3377 13.1568C11.3769 13.0749 11.4267 12.9966 11.4943 12.9361C11.562 12.8756 11.6367 12.8222 11.7257 12.783C11.8112 12.7439 11.9073 12.7261 12.0034 12.7261C12.1956 12.7261 12.3629 12.7937 12.5018 12.9254C12.6406 13.0571 12.7118 13.2209 12.7118 13.4202V13.4131Z" fill="white"/>
<path d="M14.83 13.4131C14.83 13.6125 14.7588 13.7762 14.6199 13.9079C14.4811 14.0396 14.3138 14.1073 14.1216 14.1073C14.0219 14.1073 13.9293 14.0895 13.8439 14.0539C13.7549 14.0183 13.6801 13.9684 13.6125 13.9079C13.5449 13.8474 13.495 13.7762 13.4559 13.6943C13.4167 13.6125 13.3989 13.5199 13.3989 13.4238C13.3989 13.3277 13.4167 13.2387 13.4559 13.1568C13.495 13.0749 13.5449 12.9966 13.6125 12.9361C13.6801 12.8756 13.7549 12.8222 13.8439 12.783C13.9293 12.7439 14.0254 12.7261 14.1216 12.7261C14.3138 12.7261 14.4811 12.7937 14.6199 12.9254C14.7588 13.0571 14.83 13.2209 14.83 13.4202V13.4131Z" fill="white"/>
<path d="M17.3789 12.4093C17.322 12.4235 17.2721 12.4485 17.2258 12.4876C17.1796 12.5268 17.144 12.5766 17.1155 12.6478C17.087 12.7154 17.0728 12.8044 17.0728 12.9112V14.0895C17.0728 14.4099 16.9873 14.6626 16.8129 14.8513C16.6385 15.04 16.4035 15.1325 16.1081 15.1325H15.5278V14.3921H15.8589C15.9942 14.3921 16.0832 14.3458 16.1223 14.2568C16.1615 14.1678 16.1828 14.0717 16.1828 13.9685V12.8187C16.1828 12.662 16.2077 12.5339 16.254 12.4342C16.3003 12.3345 16.3573 12.2527 16.4285 12.1922C16.4997 12.1316 16.5673 12.0854 16.6456 12.0569C16.7204 12.0284 16.788 12.0106 16.8449 12.0071V11.9928C16.788 11.9893 16.7239 11.9679 16.6456 11.9359C16.5708 11.9038 16.4997 11.8575 16.4285 11.7935C16.3573 11.7294 16.3039 11.6546 16.254 11.555C16.2077 11.4588 16.1828 11.3414 16.1828 11.2061V10.0278C16.1828 9.92458 16.1615 9.82847 16.1223 9.73947C16.0832 9.65048 15.9942 9.6042 15.8589 9.6042H15.5278V8.86377H16.1081C16.4035 8.86377 16.6385 8.95632 16.8129 9.14499C16.9873 9.33366 17.0728 9.5864 17.0728 9.90678V11.1135C17.0728 11.2132 17.087 11.2951 17.1155 11.3627C17.144 11.4268 17.1796 11.4802 17.2258 11.5158C17.2721 11.5514 17.322 11.5763 17.3789 11.5906C17.4359 11.6048 17.4928 11.6119 17.5498 11.6119V12.3879C17.4928 12.3879 17.4359 12.3951 17.3789 12.4093Z" fill="white"/>
</g>
<defs>
<clipPath id="clip0_1577_1011">
<rect width="23.9964" height="24" fill="white"/>
</clipPath>
</defs>
</svg>
