<svg width="24" height="24" viewBox="0 0 24 24" fill="none" xmlns="http://www.w3.org/2000/svg">
<g clip-path="url(#clip0_1577_1019)">
<path d="M13.3547 1.00757V2.6453C13.3547 3.35024 13.7997 3.95906 14.4548 4.16199C14.939 4.31509 15.3912 4.50378 15.8077 4.72452C16.0285 4.83845 16.2777 4.89898 16.5269 4.89898C16.9435 4.89898 17.3529 4.73164 17.6591 4.43258L18.8126 3.27548L20.7245 5.19092L19.5674 6.34802C19.0725 6.8429 18.9551 7.59056 19.279 8.21006C19.5033 8.63017 19.6885 9.07877 19.8344 9.54517C20.0374 10.1967 20.664 10.6524 21.3511 10.6524H22.9889V13.3618H21.3476C20.6569 13.3618 20.0481 13.7997 19.8344 14.4548C19.8344 14.4619 19.8309 14.4691 19.8273 14.4726C19.6885 14.9212 19.5033 15.3698 19.279 15.8006C18.9551 16.4059 19.0761 17.1713 19.5674 17.6662L20.7245 18.8233L18.8126 20.7388L17.652 19.5781C17.3529 19.279 16.9399 19.1081 16.5234 19.1081C16.2706 19.1081 16.0178 19.1687 15.7899 19.2897C15.3805 19.5069 14.9319 19.6956 14.4619 19.8451C13.7962 20.0516 13.3511 20.6604 13.3511 21.3654V23.0031H10.6453V21.3654C10.6453 20.664 10.2003 20.0552 9.54517 19.8487C9.06097 19.6956 8.60881 19.5069 8.19938 19.2897C7.97508 19.1722 7.72586 19.1117 7.47307 19.1117C7.05296 19.1117 6.63996 19.2826 6.3409 19.5817L5.1838 20.7388L3.26836 18.8233L4.42546 17.6662C4.91678 17.1749 5.03427 16.4094 4.71384 15.8077C4.48598 15.3734 4.30085 14.9248 4.16199 14.4691C3.95906 13.8175 3.33244 13.3618 2.6453 13.3618H1.00757V10.6524H2.64174C3.33244 10.6524 3.9555 10.1967 4.16199 9.54517C4.30797 9.07877 4.4931 8.63017 4.72096 8.2065C5.04495 7.59056 4.92746 6.8429 4.42902 6.34802L3.27192 5.19092L5.18736 3.27548L6.34446 4.43258C6.64352 4.73164 7.05652 4.90254 7.47307 4.90254C7.72586 4.90254 7.97864 4.84201 8.2065 4.72096C8.62661 4.49666 9.07521 4.31153 9.54161 4.16555C10.2038 3.95906 10.6489 3.34668 10.6489 2.64887V1.00757H13.3547ZM13.7748 0H10.2216C9.89764 0 9.63774 0.263462 9.63774 0.58745V2.6453C9.63774 2.89809 9.47753 3.12595 9.23899 3.20071C8.71562 3.36449 8.21006 3.57454 7.73298 3.82733C7.65109 3.87005 7.56208 3.89141 7.47307 3.89141C7.31998 3.89141 7.17045 3.83089 7.05652 3.71696L5.60036 2.26079C5.48643 2.14686 5.33689 2.08634 5.18736 2.08634C5.03783 2.08634 4.88474 2.1433 4.77081 2.26079L2.25723 4.77437C2.02937 5.00222 2.02937 5.3725 2.25723 5.60036L3.7134 7.05652C3.89141 7.23453 3.94125 7.50868 3.82376 7.73298C3.57098 8.21006 3.36093 8.71562 3.19715 9.23899C3.12239 9.47753 2.89097 9.63774 2.64174 9.63774H0.58389C0.259902 9.63774 0 9.9012 0 10.2252V13.7784C0 14.1024 0.259902 14.3658 0.58389 14.3658H2.6453C2.89453 14.3658 3.12595 14.526 3.20071 14.7646C3.36093 15.2879 3.57098 15.7899 3.82376 16.2706C3.94125 16.4913 3.89141 16.769 3.7134 16.947L2.25723 18.4032C2.02937 18.6311 2.02937 19.0013 2.25723 19.2292L4.77081 21.7428C4.88474 21.8567 5.03427 21.9172 5.18736 21.9172C5.34045 21.9172 5.48643 21.8603 5.60036 21.7428L7.05652 20.2866C7.17045 20.1727 7.31998 20.1122 7.47307 20.1122C7.56208 20.1122 7.65109 20.1335 7.73298 20.1762C8.21006 20.429 8.71562 20.6355 9.23899 20.8028C9.47753 20.8776 9.63774 21.1055 9.63774 21.3583V23.4161C9.63774 23.7401 9.89764 24.0036 10.2216 24.0036H13.7748C14.0988 24.0036 14.3623 23.7401 14.3623 23.4161V21.3583C14.3623 21.1055 14.5189 20.8776 14.761 20.8028C15.2844 20.6355 15.7864 20.429 16.2635 20.1762C16.3453 20.1335 16.4344 20.1122 16.5234 20.1122C16.6765 20.1122 16.826 20.1727 16.9399 20.2866L18.3996 21.7463C18.5136 21.8603 18.6631 21.9172 18.8126 21.9172C18.9622 21.9172 19.1153 21.8603 19.2292 21.7428L21.7392 19.2292C21.9671 19.0013 21.9671 18.6311 21.7392 18.4032L20.283 16.947C20.105 16.769 20.0552 16.4913 20.1727 16.2706C20.4255 15.7899 20.6355 15.2879 20.7957 14.7646C20.8741 14.526 21.1019 14.3658 21.3511 14.3658H23.4125C23.7365 14.3658 24 14.1024 24 13.7784V10.2252C24 9.9012 23.7365 9.63774 23.4125 9.63774H21.3547C21.1055 9.63774 20.8741 9.47753 20.7993 9.23899C20.6355 8.71562 20.4255 8.21006 20.1727 7.73298C20.0552 7.50868 20.105 7.23453 20.283 7.05652L21.7392 5.60036C21.9671 5.3725 21.9671 5.00222 21.7392 4.77437L19.2292 2.26079C19.1153 2.1433 18.9622 2.08634 18.8126 2.08634C18.6631 2.08634 18.5136 2.1433 18.3996 2.25723L16.9435 3.71696C16.8295 3.82733 16.6765 3.88785 16.5269 3.88785C16.4415 3.88785 16.3525 3.86649 16.2706 3.82733C15.7899 3.57454 15.2844 3.36805 14.761 3.20071C14.5189 3.12595 14.3623 2.89809 14.3623 2.6453V0.58745C14.3623 0.263462 14.0988 0 13.7748 0Z" fill="white"/>
<path d="M7.48001 15.1383C7.1845 15.1383 6.94596 15.0458 6.77507 14.8571C6.60417 14.6684 6.51517 14.4156 6.51517 14.0952V12.9167C6.51517 12.8099 6.50093 12.7209 6.47244 12.6533C6.44396 12.5856 6.40836 12.5322 6.36207 12.493C6.31579 12.4539 6.26595 12.429 6.20898 12.4147C6.15202 12.4005 6.09505 12.3934 6.03809 12.3934V11.6172C6.09505 11.6172 6.15202 11.6101 6.20898 11.5958C6.26595 11.5816 6.31579 11.5567 6.36207 11.5211C6.40836 11.4855 6.44396 11.4356 6.47244 11.368C6.50093 11.3003 6.51517 11.2185 6.51517 11.1188V9.91182C6.51517 9.59139 6.60061 9.33861 6.77507 9.14992C6.94952 8.96122 7.1845 8.86865 7.48001 8.86865H8.06034V9.6092H7.72923C7.59394 9.6092 7.50493 9.65548 7.46577 9.74449C7.4266 9.83349 7.40524 9.92962 7.40524 10.0329V11.2113C7.40524 11.3466 7.38032 11.4641 7.33404 11.5602C7.28775 11.6564 7.23079 11.7347 7.15958 11.7988C7.09194 11.8593 7.02073 11.9056 6.9424 11.9412C6.86764 11.9732 6.79999 11.9946 6.74303 11.9982V12.0124C6.79999 12.016 6.86408 12.0338 6.9424 12.0622C7.01717 12.0907 7.08838 12.137 7.15958 12.1975C7.22723 12.2581 7.28419 12.3399 7.33404 12.4396C7.38388 12.5393 7.40524 12.6675 7.40524 12.8241V13.9741C7.40524 14.0774 7.4266 14.1735 7.46577 14.2625C7.50493 14.3515 7.59394 14.3978 7.72923 14.3978H8.06034V15.1383H7.48001Z" fill="white"/>
<path d="M8.78662 15.1385V8.86523H10.314V9.58442H9.68382V14.4157H10.314V15.1349H8.78662V15.1385Z" fill="white"/>
<path d="M12.0161 14.9141H11.0405L11.571 12.9061H12.6996L12.0161 14.9141ZM12.6925 11.1402C12.6925 11.3289 12.6249 11.4891 12.4896 11.6173C12.3543 11.7454 12.1941 11.8131 12.0054 11.8131C11.9128 11.8131 11.8238 11.7953 11.7419 11.7632C11.66 11.7312 11.5853 11.6849 11.5212 11.6208C11.4571 11.5567 11.4072 11.4891 11.3681 11.4072C11.3289 11.3289 11.3111 11.2399 11.3111 11.1473C11.3111 11.0547 11.3289 10.9657 11.3645 10.8838C11.4001 10.802 11.45 10.7307 11.514 10.6667C11.5781 10.6026 11.6529 10.5563 11.7348 10.5207C11.8202 10.4851 11.9092 10.4673 12.0018 10.4673C12.0944 10.4673 12.1798 10.4851 12.2617 10.5207C12.3472 10.5563 12.4184 10.6026 12.4825 10.6631C12.543 10.7236 12.5928 10.7913 12.632 10.8732C12.6711 10.955 12.6889 11.0441 12.6889 11.1366L12.6925 11.1402Z" fill="white"/>
<path d="M13.689 15.1383V14.4192H14.3191V9.58783H13.689V8.86865H15.2163V15.1419H13.689V15.1383Z" fill="white"/>
<path d="M17.7942 12.4113C17.7373 12.4255 17.6874 12.4505 17.6411 12.4896C17.5949 12.5288 17.5592 12.5786 17.5308 12.6498C17.5023 12.7175 17.488 12.8065 17.488 12.9133V14.0918C17.488 14.4122 17.4026 14.665 17.2281 14.8537C17.0537 15.0424 16.8187 15.1349 16.5232 15.1349H15.9429V14.3944H16.274C16.4093 14.3944 16.4983 14.3481 16.5374 14.2591C16.5766 14.1701 16.598 14.074 16.598 13.9707V12.8207C16.598 12.6641 16.6229 12.5359 16.6692 12.4362C16.7155 12.3365 16.7724 12.2546 16.8436 12.1941C16.9148 12.1336 16.9825 12.0873 17.0608 12.0588C17.1356 12.0303 17.2032 12.0125 17.2602 12.009V11.9947C17.2032 11.9912 17.1391 11.9698 17.0608 11.9378C16.986 11.9057 16.9148 11.8594 16.8436 11.7954C16.7724 11.7313 16.719 11.6565 16.6692 11.5568C16.6229 11.4607 16.598 11.3432 16.598 11.2079V10.0295C16.598 9.9262 16.5766 9.83008 16.5374 9.74107C16.4983 9.65206 16.4093 9.60578 16.274 9.60578H15.9429V8.86523H16.5232C16.8187 8.86523 17.0537 8.9578 17.2281 9.1465C17.4026 9.33519 17.488 9.58798 17.488 9.9084V11.1153C17.488 11.215 17.5023 11.2969 17.5308 11.3646C17.5592 11.4287 17.5949 11.4821 17.6411 11.5177C17.6874 11.5533 17.7373 11.5782 17.7942 11.5924C17.8512 11.6067 17.9082 11.6138 17.9651 11.6138V12.3899C17.9082 12.3899 17.8512 12.3971 17.7942 12.4113Z" fill="white"/>
</g>
<defs>
<clipPath id="clip0_1577_1019">
<rect width="24" height="24.0036" fill="white"/>
</clipPath>
</defs>
</svg>
