<svg width="24" height="24" viewBox="0 0 24 24" fill="none" xmlns="http://www.w3.org/2000/svg">
<g clip-path="url(#clip0_1577_1027)">
<path d="M13.3547 1.00757V2.6453C13.3547 3.35024 13.7997 3.95906 14.4548 4.16199C14.939 4.31509 15.3912 4.50378 15.8077 4.72452C16.0285 4.83845 16.2777 4.89898 16.5269 4.89898C16.9435 4.89898 17.3529 4.73164 17.6591 4.43258L18.8126 3.27548L20.7245 5.19092L19.5674 6.34802C19.0725 6.8429 18.9551 7.59056 19.279 8.21006C19.5033 8.63017 19.6885 9.07877 19.8344 9.54517C20.0374 10.1967 20.664 10.6524 21.3511 10.6524H22.9889V13.3618H21.3476C20.6569 13.3618 20.0481 13.7997 19.8344 14.4548C19.8344 14.4619 19.8309 14.4691 19.8273 14.4726C19.6885 14.9212 19.5033 15.3698 19.279 15.8006C18.9551 16.4059 19.0761 17.1713 19.5674 17.6662L20.7245 18.8233L18.8126 20.7388L17.652 19.5781C17.3529 19.279 16.9399 19.1081 16.5234 19.1081C16.2706 19.1081 16.0178 19.1687 15.7899 19.2897C15.3805 19.5069 14.9319 19.6956 14.4619 19.8451C13.7962 20.0516 13.3511 20.6604 13.3511 21.3654V23.0031H10.6453V21.3654C10.6453 20.664 10.2003 20.0552 9.54517 19.8487C9.06097 19.6956 8.60881 19.5069 8.19938 19.2897C7.97508 19.1722 7.72586 19.1117 7.47307 19.1117C7.05296 19.1117 6.63996 19.2826 6.3409 19.5817L5.1838 20.7388L3.26836 18.8233L4.42546 17.6662C4.91678 17.1749 5.03427 16.4094 4.71384 15.8077C4.48598 15.3734 4.30085 14.9248 4.16199 14.4691C3.95906 13.8175 3.33244 13.3618 2.6453 13.3618H1.00757V10.6524H2.64174C3.33244 10.6524 3.9555 10.1967 4.16199 9.54517C4.30797 9.07877 4.4931 8.63017 4.72096 8.2065C5.04495 7.59056 4.92746 6.8429 4.42902 6.34802L3.27192 5.19092L5.18736 3.27548L6.34446 4.43258C6.64352 4.73164 7.05652 4.90254 7.47307 4.90254C7.72586 4.90254 7.97864 4.84201 8.2065 4.72096C8.62661 4.49666 9.07521 4.31153 9.54161 4.16555C10.2038 3.95906 10.6489 3.34668 10.6489 2.64887V1.00757H13.3547ZM13.7748 0H10.2216C9.89764 0 9.63774 0.263462 9.63774 0.58745V2.6453C9.63774 2.89809 9.47753 3.12595 9.23899 3.20071C8.71562 3.36449 8.21006 3.57454 7.73298 3.82733C7.65109 3.87005 7.56208 3.89141 7.47307 3.89141C7.31998 3.89141 7.17045 3.83089 7.05652 3.71696L5.60036 2.26079C5.48643 2.14686 5.33689 2.08634 5.18736 2.08634C5.03783 2.08634 4.88474 2.1433 4.77081 2.26079L2.25723 4.77437C2.02937 5.00222 2.02937 5.3725 2.25723 5.60036L3.7134 7.05652C3.89141 7.23453 3.94125 7.50868 3.82376 7.73298C3.57098 8.21006 3.36093 8.71562 3.19715 9.23899C3.12239 9.47753 2.89097 9.63774 2.64174 9.63774H0.58389C0.259902 9.63774 0 9.9012 0 10.2252V13.7784C0 14.1024 0.259902 14.3658 0.58389 14.3658H2.6453C2.89453 14.3658 3.12595 14.526 3.20071 14.7646C3.36093 15.2879 3.57098 15.7899 3.82376 16.2706C3.94125 16.4913 3.89141 16.769 3.7134 16.947L2.25723 18.4032C2.02937 18.6311 2.02937 19.0013 2.25723 19.2292L4.77081 21.7428C4.88474 21.8567 5.03427 21.9172 5.18736 21.9172C5.34045 21.9172 5.48643 21.8603 5.60036 21.7428L7.05652 20.2866C7.17045 20.1727 7.31998 20.1122 7.47307 20.1122C7.56208 20.1122 7.65109 20.1335 7.73298 20.1762C8.21006 20.429 8.71562 20.6355 9.23899 20.8028C9.47753 20.8776 9.63774 21.1055 9.63774 21.3583V23.4161C9.63774 23.7401 9.89764 24.0036 10.2216 24.0036H13.7748C14.0988 24.0036 14.3623 23.7401 14.3623 23.4161V21.3583C14.3623 21.1055 14.5189 20.8776 14.761 20.8028C15.2844 20.6355 15.7864 20.429 16.2635 20.1762C16.3453 20.1335 16.4344 20.1122 16.5234 20.1122C16.6765 20.1122 16.826 20.1727 16.9399 20.2866L18.3996 21.7463C18.5136 21.8603 18.6631 21.9172 18.8126 21.9172C18.9622 21.9172 19.1153 21.8603 19.2292 21.7428L21.7392 19.2292C21.9671 19.0013 21.9671 18.6311 21.7392 18.4032L20.283 16.947C20.105 16.769 20.0552 16.4913 20.1727 16.2706C20.4255 15.7899 20.6355 15.2879 20.7957 14.7646C20.8741 14.526 21.1019 14.3658 21.3511 14.3658H23.4125C23.7365 14.3658 24 14.1024 24 13.7784V10.2252C24 9.9012 23.7365 9.63774 23.4125 9.63774H21.3547C21.1055 9.63774 20.8741 9.47753 20.7993 9.23899C20.6355 8.71562 20.4255 8.21006 20.1727 7.73298C20.0552 7.50868 20.105 7.23453 20.283 7.05652L21.7392 5.60036C21.9671 5.3725 21.9671 5.00222 21.7392 4.77437L19.2292 2.26079C19.1153 2.1433 18.9622 2.08634 18.8126 2.08634C18.6631 2.08634 18.5136 2.1433 18.3996 2.25723L16.9435 3.71696C16.8295 3.82733 16.6765 3.88785 16.5269 3.88785C16.4415 3.88785 16.3525 3.86649 16.2706 3.82733C15.7899 3.57454 15.2844 3.36805 14.761 3.20071C14.5189 3.12595 14.3623 2.89809 14.3623 2.6453V0.58745C14.3623 0.263462 14.0988 0 13.7748 0Z" fill="white"/>
<path d="M15.1385 11.539V12.4647H12.4647V15.1385H11.539V12.4647H8.86523V11.539H11.539V8.86523H12.4647V11.539H15.1385Z" fill="white"/>
</g>
<defs>
<clipPath id="clip0_1577_1027">
<rect width="24" height="24.0036" fill="white"/>
</clipPath>
</defs>
</svg>
