<svg width="34" height="33" viewBox="0 0 34 33" fill="none" xmlns="http://www.w3.org/2000/svg">
<g clip-path="url(#clip0_1114_400)">
<path d="M17.03 3.29998L29.03 15.3L32.52 11.81C32.72 11.61 32.71 11.29 32.52 11.1C32.31 10.89 32.02 10.89 31.81 11.1C31.33 11.59 30.59 11.64 30.02 11.28C29.91 11.22 29.82 11.14 29.74 11.05C29.65 10.96 29.56 10.86 29.5 10.77C29.07 10.11 29.27 9.40998 29.69 8.97998L30.47 8.19998C30.57 8.09998 30.62 7.97998 30.63 7.84998C30.63 7.72998 30.59 7.60998 30.49 7.50998C30.4 7.41998 30.29 7.36998 30.17 7.35998C30.03 7.35998 29.89 7.39998 29.79 7.50998L29.42 7.87998C28.93 8.40998 28.12 8.48998 27.53 8.08998C27.45 8.04998 27.38 7.99998 27.32 7.92998C27.22 7.82998 27.14 7.72998 27.08 7.61998C26.76 7.09998 26.78 6.47998 27.12 5.97998C27.17 5.89998 27.23 5.81998 27.3 5.74998L28.81 4.23998C29 4.04998 29 3.71998 28.81 3.52998C28.6 3.31998 28.29 3.32998 28.1 3.52998L24.06 7.56998C23.77 7.85998 23.38 7.98998 23 7.97998C22.64 7.95998 22.28 7.80998 21.99 7.51998C21.26 6.78998 21.45 5.93998 21.94 5.44998L22.72 4.66998C22.92 4.46998 22.93 4.16998 22.74 3.97998C22.53 3.76998 22.23 3.77998 22.03 3.97998L21.66 4.34998C21.1 4.93998 20.15 4.96998 19.56 4.39998C18.93 3.76998 18.94 2.82998 19.55 2.21998L19.91 1.85998C20.1 1.66998 20.1 1.33998 19.91 1.14998C19.7 0.939984 19.38 0.939984 19.19 1.13998L17.04 3.28998L17.03 3.29998Z" fill="#FD9800"/>
<path d="M22.24 14.2502C22.05 14.4402 22.05 14.7702 22.24 14.9602C22.45 15.1702 22.76 15.1702 22.95 14.9602L25.09 12.8202L18.74 6.47021L16.6 8.61021C16.41 8.80021 16.41 9.13021 16.6 9.32021C16.81 9.53021 17.11 9.52021 17.31 9.32021L18.08 8.55022C18.65 7.98022 19.56 8.00022 20.16 8.59022C20.89 9.32022 20.7 10.1702 20.2 10.6702L19.43 11.4402C19.23 11.6402 19.22 11.9302 19.41 12.1302C19.62 12.3402 19.92 12.3302 20.12 12.1302L20.49 11.7602C21.04 11.1702 22 11.1402 22.59 11.7102C23.22 12.3402 23.21 13.2802 22.6 13.8902L22.24 14.2502Z" fill="#FD9800"/>
<path d="M15.53 3.36979C15.2 3.25979 14.82 3.33979 14.57 3.59979L11.01 7.15979C10.64 7.52979 10.64 8.13979 11.01 8.51979L23.77 21.2798C24.14 21.6498 24.75 21.6498 25.13 21.2798L26.16 20.2498C26.16 20.2498 26.17 20.2198 26.18 20.2098L27.61 18.7798C27.61 18.7798 27.63 18.7598 27.65 18.7598L28.69 17.7198C28.8 17.6098 28.87 17.4798 28.92 17.3398C29.03 17.0098 28.95 16.6298 28.69 16.3698H28.68L25.83 13.5098L23.67 15.6698C23.08 16.2598 22.14 16.2598 21.56 15.6798C20.95 15.0698 20.95 14.1198 21.54 13.5398L21.9 13.1798C22.12 12.9598 22.13 12.6598 21.92 12.4498C21.7 12.2398 21.39 12.2598 21.21 12.4498L20.84 12.8198C20.25 13.4098 19.31 13.4098 18.74 12.8398C18.15 12.2498 18.15 11.3098 18.74 10.7198L19.51 9.94979C19.65 9.80979 19.76 9.57979 19.47 9.28979C19.29 9.10979 19.01 9.03979 18.81 9.24979L18.04 10.0198C17.45 10.6098 16.51 10.6098 15.94 10.0398C15.33 9.42979 15.33 8.47979 15.92 7.89979L18.08 5.73979L15.94 3.59979C15.83 3.48979 15.69 3.40979 15.55 3.36979H15.53Z" fill="#FD9800"/>
<path d="M1.48005 29.3799C0.640054 30.2199 1.09005 31.1099 1.48005 31.4999C1.88005 31.8999 2.76005 32.3399 3.60005 31.4999L8.12005 26.9799L6.00005 24.8599L1.48005 29.3799Z" fill="#4976B3"/>
<path d="M25.41 28.07L30.39 23.09C30.71 22.77 30.88 22.42 30.91 22.06C30.91 22.03 30.91 22.01 30.91 21.98C30.91 21.96 30.91 21.94 30.91 21.92C30.91 21.56 30.75 21.21 30.43 20.89L28.69 19.15L29.4 18.44C29.75 18.09 29.94 17.63 29.96 17.17C29.99 16.79 29.9 16.4 29.69 16.05L33.22 12.52C33.72 12.02 33.79 11.25 33.42 10.67C33.37 10.56 33.29 10.47 33.2 10.38C33.13 10.31 33.05 10.25 32.97 10.19C32.4 9.82003 31.62 9.89003 31.11 10.4C30.91 10.61 30.63 10.53 30.45 10.36C30.16 10.07 30.26 9.84003 30.4 9.70003L31.18 8.92003C31.76 8.34003 31.77 7.39003 31.18 6.80003C30.59 6.21003 29.66 6.24003 29.08 6.82003L28.7 7.20003C28.52 7.40003 28.21 7.41003 27.99 7.20003C27.78 6.99003 27.79 6.69003 28.01 6.47003L29.52 4.96003C30.1 4.38003 30.11 3.43003 29.5 2.82003C28.89 2.21003 27.97 2.25003 27.39 2.83003L23.35 6.87003C23.15 7.07003 22.86 6.99003 22.69 6.82003C22.4 6.53003 22.5 6.30003 22.64 6.16003L23.42 5.38003C24 4.80003 24.01 3.85003 23.42 3.26003C22.83 2.67003 21.9 2.70003 21.32 3.28003L20.94 3.66003C20.76 3.86003 20.45 3.86003 20.23 3.66003C20.02 3.45003 20.03 3.15003 20.25 2.93003L20.61 2.57003C21.19 1.99003 21.19 1.03003 20.59 0.430033C19.99 -0.169967 19.06 -0.139967 18.48 0.430033L16.3 2.61003C15.54 2.14003 14.54 2.22003 13.88 2.88003L13.76 3.00003C12.76 2.29003 11.51 2.35003 10.64 3.22003C9.77 4.09003 9.71 5.33003 10.43 6.33003L10.32 6.44003C9.55999 7.20003 9.55999 8.45003 10.32 9.21003L23.08 21.97C23.84 22.73 25.09 22.73 25.85 21.97L26.56 21.26L27.14 21.84C27.2 21.9 27.22 21.94 27.25 21.95L23.96 25.24L11.68 20.71C11.04 20.34 10.44 20.41 9.96 20.89L6.70999 24.14L6.35999 23.79C6.16999 23.6 5.84999 23.59 5.64999 23.79L0.769995 28.67C-0.400005 29.84 -0.110005 31.33 0.769995 32.21C1.64999 33.09 3.13999 33.38 4.30999 32.21L9.18 27.34C9.28 27.24 9.33 27.12 9.34 26.99C9.34 26.86 9.28 26.74 9.18 26.64L8.83 26.29L11.49 23.67L23.57 28.39C24.46 28.91 24.98 28.52 25.29 28.21C25.34 28.16 25.37 28.12 25.41 28.08V28.07ZM11.14 5.62003C10.84 5.10003 10.81 4.47003 11.34 3.94003C11.87 3.41003 12.51 3.44003 13.03 3.73003L11.14 5.62003ZM28.7 17.72L27.66 18.76C27.66 18.76 27.64 18.76 27.62 18.78L26.19 20.21C26.19 20.21 26.18 20.22 26.17 20.25L25.14 21.28C24.77 21.65 24.16 21.65 23.78 21.28L11.02 8.51003C10.65 8.14003 10.65 7.53003 11.02 7.15003L14.58 3.59003C14.83 3.34003 15.21 3.26003 15.54 3.36003C15.68 3.40003 15.82 3.48003 15.93 3.59003L18.07 5.73003L15.91 7.89003C15.32 8.48003 15.32 9.42003 15.93 10.03C16.5 10.6 17.44 10.6 18.03 10.01L18.8 9.24003C19.01 9.03003 19.29 9.11003 19.46 9.28003C19.75 9.57003 19.64 9.80003 19.5 9.94003L18.73 10.71C18.14 11.3 18.14 12.24 18.73 12.83C19.32 13.42 20.24 13.4 20.83 12.81L21.2 12.44C21.38 12.24 21.69 12.23 21.91 12.44C22.12 12.65 22.11 12.95 21.89 13.17L21.53 13.53C20.94 14.12 20.94 15.06 21.55 15.67C22.16 16.28 23.07 16.24 23.66 15.66L25.82 13.5L28.67 16.35H28.68C28.94 16.63 29.03 17.01 28.91 17.33C28.87 17.47 28.79 17.61 28.68 17.71L28.7 17.72ZM22.96 14.96C22.76 15.16 22.46 15.17 22.25 14.96C22.06 14.77 22.06 14.44 22.25 14.25L22.61 13.89C23.22 13.28 23.23 12.34 22.6 11.71C22.01 11.14 21.05 11.17 20.5 11.76L20.13 12.13C19.93 12.33 19.63 12.34 19.42 12.13C19.23 11.94 19.24 11.64 19.44 11.44L20.21 10.67C20.7 10.18 20.9 9.32003 20.17 8.59003C19.58 8.00003 18.66 7.97003 18.09 8.55003L17.32 9.32003C17.12 9.52003 16.82 9.53003 16.61 9.32003C16.42 9.13003 16.42 8.80003 16.61 8.61003L18.75 6.47003L25.1 12.82L22.96 14.96ZM19.18 1.15003C19.37 0.960033 19.69 0.950033 19.9 1.16003C20.09 1.35003 20.09 1.68003 19.9 1.87003L19.54 2.23003C18.93 2.84003 18.92 3.78003 19.55 4.41003C20.14 4.98003 21.09 4.95003 21.65 4.36003L22.02 3.99003C22.22 3.79003 22.52 3.78003 22.73 3.99003C22.91 4.17003 22.91 4.48003 22.71 4.68003L21.93 5.46003C21.44 5.95003 21.25 6.80003 21.98 7.53003C22.27 7.82003 22.63 7.97003 22.99 7.99003C23.37 8.00003 23.76 7.87003 24.05 7.58003L28.09 3.54003C28.28 3.35003 28.6 3.34003 28.8 3.54003C28.99 3.73003 28.99 4.06003 28.8 4.25003L27.29 5.76003C27.22 5.83003 27.16 5.91003 27.11 5.99003C26.76 6.49003 26.75 7.11003 27.07 7.63003C27.13 7.74003 27.21 7.84003 27.31 7.94003C27.37 8.00003 27.44 8.06003 27.52 8.10003C28.11 8.50003 28.92 8.43003 29.41 7.89003L29.78 7.52003C29.89 7.41003 30.02 7.36003 30.16 7.36003C30.28 7.37003 30.39 7.42003 30.48 7.52003C30.58 7.62003 30.61 7.74003 30.62 7.86003C30.61 7.99003 30.56 8.11003 30.46 8.21003L29.68 8.99003C29.26 9.41003 29.06 10.12 29.49 10.78C29.55 10.87 29.64 10.97 29.73 11.06C29.81 11.14 29.91 11.22 30.01 11.29C30.58 11.65 31.32 11.59 31.8 11.11C32.01 10.9 32.3 10.9 32.51 11.11C32.7 11.3 32.71 11.62 32.51 11.82L29.02 15.31L17.03 3.30003L19.18 1.15003ZM3.59999 31.5C2.75999 32.34 1.86999 31.9 1.47999 31.5C1.08999 31.1 0.639995 30.22 1.47999 29.38L5.99999 24.86L8.12 26.98L3.59999 31.5ZM24.01 27.46L11.54 22.57C11.54 22.57 11.46 22.57 11.41 22.56L11.23 22.5L11.09 22.64C11.09 22.64 11.03 22.66 11.01 22.68L8.17 25.49L7.49999 24.82L10.66 21.66C10.77 21.55 10.88 21.47 11.25 21.67L24.19 26.44L27.79 22.84C28 22.64 28.26 22.39 28.26 22.01C28.26 21.94 28.25 21.87 28.23 21.81C28.22 21.78 28.23 21.76 28.22 21.74C28.14 21.48 27.95 21.27 27.81 21.13L27.26 20.58L27.98 19.86L29.72 21.6C29.84 21.72 29.93 21.85 29.9 22.03C29.9 22.07 29.9 22.1 29.88 22.14C29.84 22.22 29.77 22.3 29.68 22.39L24.67 27.4C24.61 27.47 24.56 27.52 24.52 27.56C24.38 27.67 24.3 27.64 24.01 27.48V27.46Z" fill="#6F6F6F"/>
</g>
<defs>
<clipPath id="clip0_1114_400">
<rect width="33.65" height="32.98" fill="white"/>
</clipPath>
</defs>
</svg>
