<?xml version="1.0" encoding="utf-8"?>
<!-- Generator: Adobe Illustrator 27.0.0, SVG Export Plug-In . SVG Version: 6.00 Build 0)  -->
<svg version="1.1" id="Шар_1" xmlns="http://www.w3.org/2000/svg" xmlns:xlink="http://www.w3.org/1999/xlink" x="0px" y="0px"
	 viewBox="0 0 300 300" style="enable-background:new 0 0 300 300;" xml:space="preserve">
<style type="text/css">
	.st0{clip-path:url(#SVGID_00000066485798998786134740000010757977853630057127_);}
	.st1{fill:#FD9800;}
	.st2{fill:#4976B3;}
	.st3{fill:#6F6F6F;}
</style>
<g>
	<defs>
		<rect id="SVGID_1_" y="0" width="300" height="300"/>
	</defs>
	<clipPath id="SVGID_00000127008778488900444410000009479950108035947656_">
		<use xlink:href="#SVGID_1_"  style="overflow:visible;"/>
	</clipPath>
	<g style="clip-path:url(#SVGID_00000127008778488900444410000009479950108035947656_);">
		<path class="st1" d="M151.8,30l107,109.2l31.1-31.7c1.8-1.8,1.7-4.7,0-6.5c-1.9-1.9-4.5-1.9-6.3,0c-4.3,4.5-10.9,4.9-16,1.6
			c-1-0.5-1.8-1.3-2.5-2.1c-0.8-0.8-1.6-1.7-2.1-2.5c-3.8-6-2.1-12.4,1.7-16.3l7-7.1c0.9-0.9,1.3-2,1.4-3.2c0-1.1-0.4-2.2-1.2-3.1
			c-0.8-0.8-1.8-1.3-2.9-1.4c-1.2,0-2.5,0.4-3.4,1.4l-3.3,3.4c-4.4,4.8-11.6,5.5-16.8,1.9c-0.7-0.4-1.3-0.8-1.9-1.5
			c-0.9-0.9-1.6-1.8-2.1-2.8c-2.9-4.7-2.7-10.4,0.4-14.9c0.4-0.7,1-1.5,1.6-2.1l13.5-13.7c1.7-1.7,1.7-4.7,0-6.5
			c-1.9-1.9-4.6-1.8-6.3,0l-36,36.7c-2.6,2.6-6.1,3.8-9.5,3.7c-3.2-0.2-6.4-1.5-9-4.2c-6.5-6.6-4.8-14.4-0.4-18.8l7-7.1
			c1.8-1.8,1.9-4.5,0.2-6.3c-1.9-1.9-4.5-1.8-6.3,0l-3.3,3.4c-5,5.4-13.5,5.6-18.7,0.5c-5.6-5.7-5.5-14.3-0.1-19.8l3.2-3.3
			c1.7-1.7,1.7-4.7,0-6.5c-1.9-1.9-4.7-1.9-6.4-0.1L151.8,30L151.8,30z"/>
		<path class="st1" d="M198.3,129.6c-1.7,1.7-1.7,4.7,0,6.5c1.9,1.9,4.6,1.9,6.3,0l19.1-19.5l-56.6-57.8L148,78.3
			c-1.7,1.7-1.7,4.7,0,6.5c1.9,1.9,4.5,1.8,6.3,0l6.9-7c5.1-5.2,13.2-5,18.5,0.4c6.5,6.6,4.8,14.4,0.4,18.9l-6.9,7
			c-1.8,1.8-1.9,4.5-0.2,6.3c1.9,1.9,4.5,1.8,6.3,0l3.3-3.4c4.9-5.4,13.5-5.6,18.7-0.5c5.6,5.7,5.5,14.3,0.1,19.8L198.3,129.6z"/>
		<path class="st1" d="M138.5,30.6c-2.9-1-6.3-0.3-8.6,2.1L98.2,65.1c-3.3,3.4-3.3,8.9,0,12.4l113.8,116.1c3.3,3.4,8.7,3.4,12.1,0
			l9.2-9.4c0,0,0.1-0.3,0.2-0.4l12.7-13c0,0,0.2-0.2,0.4-0.2l9.3-9.5c1-1,1.6-2.2,2.1-3.5c1-3,0.3-6.5-2.1-8.8h-0.1l-25.4-26
			L211,142.5c-5.3,5.4-13.6,5.4-18.8,0.1c-5.4-5.5-5.4-14.2-0.2-19.5l3.2-3.3c2-2,2.1-4.7,0.2-6.6c-2-1.9-4.7-1.7-6.3,0l-3.3,3.4
			c-5.3,5.4-13.6,5.4-18.7,0.2c-5.3-5.4-5.3-13.9,0-19.3l6.9-7c1.2-1.3,2.2-3.4-0.4-6c-1.6-1.6-4.1-2.3-5.9-0.4l-6.9,7
			c-5.3,5.4-13.6,5.4-18.7,0.2c-5.4-5.5-5.4-14.2-0.2-19.5l19.3-19.6l-19.1-19.5c-1-1-2.2-1.7-3.5-2.1H138.5z"/>
		<path class="st2" d="M13.2,267.2c-7.5,7.6-3.5,15.7,0,19.3c3.6,3.6,11.4,7.6,18.9,0l40.3-41.1l-18.9-19.3L13.2,267.2z"/>
		<path class="st3" d="M226.5,255.3l44.4-45.3c2.9-2.9,4.4-6.1,4.6-9.4c0-0.3,0-0.5,0-0.7c0-0.2,0-0.4,0-0.5c0-3.3-1.4-6.5-4.3-9.4
			l-15.5-15.8l6.3-6.5c3.1-3.2,4.8-7.4,5-11.6c0.3-3.5-0.5-7-2.4-10.2l31.5-32.1c4.5-4.5,5.1-11.6,1.8-16.8c-0.4-1-1.2-1.8-2-2.6
			c-0.6-0.6-1.3-1.2-2.1-1.7c-5.1-3.4-12-2.7-16.6,1.9c-1.8,1.9-4.3,1.2-5.9-0.4c-2.6-2.6-1.7-4.7-0.4-6l7-7.1
			c5.2-5.3,5.3-13.9,0-19.3c-5.3-5.4-13.6-5.1-18.7,0.2l-3.4,3.5c-1.6,1.8-4.4,1.9-6.3,0c-1.9-1.9-1.8-4.6,0.2-6.6l13.5-13.7
			c5.2-5.3,5.3-13.9-0.2-19.5c-5.4-5.5-13.6-5.2-18.8,0.1l-36,36.7c-1.8,1.8-4.4,1.1-5.9-0.5c-2.6-2.6-1.7-4.7-0.4-6l7-7.1
			c5.2-5.3,5.3-13.9,0-19.3c-5.3-5.4-13.6-5.1-18.7,0.2l-3.4,3.5c-1.6,1.8-4.4,1.8-6.3,0c-1.9-1.9-1.8-4.6,0.2-6.6l3.2-3.3
			c5.2-5.3,5.2-14-0.2-19.5c-5.3-5.5-13.6-5.2-18.8,0l-19.4,19.8c-6.8-4.3-15.7-3.5-21.6,2.5l-1.1,1.1c-8.9-6.5-20.1-5.9-27.8,2
			S86.6,48.5,93,57.6l-1,1c-6.8,6.9-6.8,18.3,0,25.2l113.8,116.1c6.8,6.9,17.9,6.9,24.7,0l6.3-6.5l5.2,5.3c0.5,0.5,0.7,0.9,1,1
			l-29.3,29.9l-109.5-41.2c-5.7-3.4-11.1-2.7-15.3,1.6l-29,29.6l-3.1-3.2c-1.7-1.7-4.5-1.8-6.3,0L6.9,260.8
			C-3.6,271.4-1,285,6.9,293c7.8,8,21.1,10.6,31.6,0l43.4-44.3c0.9-0.9,1.3-2,1.4-3.2c0-1.2-0.5-2.3-1.4-3.2l-3.1-3.2l23.7-23.8
			l107.7,42.9c7.9,4.7,12.6,1.2,15.3-1.6C225.9,256.1,226.2,255.8,226.5,255.3L226.5,255.3z M99.3,51.1c-2.7-4.7-2.9-10.5,1.8-15.3
			c4.7-4.8,10.4-4.5,15.1-1.9L99.3,51.1z M255.9,161.2l-9.3,9.5c0,0-0.2,0-0.4,0.2l-12.7,13c0,0-0.1,0.1-0.2,0.4l-9.2,9.4
			c-3.3,3.4-8.7,3.4-12.1,0L98.2,77.4c-3.3-3.4-3.3-8.9,0-12.4L130,32.6c2.2-2.3,5.6-3,8.6-2.1c1.2,0.4,2.5,1.1,3.5,2.1l19.1,19.5
			l-19.3,19.6c-5.3,5.4-5.3,13.9,0.2,19.5c5.1,5.2,13.5,5.2,18.7-0.2l6.9-7c1.9-1.9,4.4-1.2,5.9,0.4c2.6,2.6,1.6,4.7,0.4,6l-6.9,7
			c-5.3,5.4-5.3,13.9,0,19.3s13.5,5.2,18.7-0.2l3.3-3.4c1.6-1.8,4.4-1.9,6.3,0c1.9,1.9,1.8,4.6-0.2,6.6l-3.2,3.3
			c-5.3,5.4-5.3,13.9,0.2,19.5c5.4,5.5,13.6,5.2,18.8-0.1l19.3-19.6l25.4,25.9h0.1c2.3,2.5,3.1,6,2.1,8.9c-0.4,1.3-1.1,2.5-2.1,3.5
			L255.9,161.2z M204.7,136.1c-1.8,1.8-4.5,1.9-6.3,0c-1.7-1.7-1.7-4.7,0-6.5l3.2-3.3c5.4-5.5,5.5-14.1-0.1-19.8
			c-5.3-5.2-13.8-4.9-18.7,0.5l-3.3,3.4c-1.8,1.8-4.5,1.9-6.3,0c-1.7-1.7-1.6-4.5,0.2-6.3l6.9-7c4.4-4.5,6.2-12.3-0.4-18.9
			c-5.3-5.4-13.5-5.6-18.5-0.4l-6.9,7c-1.8,1.8-4.5,1.9-6.3,0c-1.7-1.7-1.7-4.7,0-6.5l19.1-19.5l56.6,57.8L204.7,136.1z M171,10.5
			c1.7-1.7,4.5-1.8,6.4,0.1c1.7,1.7,1.7,4.7,0,6.5l-3.2,3.3c-5.4,5.5-5.5,14.1,0.1,19.8c5.3,5.2,13.7,4.9,18.7-0.5l3.3-3.4
			c1.8-1.8,4.5-1.9,6.3,0c1.6,1.6,1.6,4.5-0.2,6.3l-7,7.1c-4.4,4.5-6.1,12.2,0.4,18.8c2.6,2.6,5.8,4,9,4.2c3.4,0.1,6.9-1.1,9.5-3.7
			l36-36.7c1.7-1.7,4.5-1.8,6.3,0c1.7,1.7,1.7,4.7,0,6.5l-13.5,13.7c-0.6,0.6-1.2,1.4-1.6,2.1c-3.1,4.5-3.2,10.2-0.4,14.9
			c0.5,1,1.2,1.9,2.1,2.8c0.5,0.5,1.2,1.1,1.9,1.5c5.3,3.6,12.5,3,16.8-1.9l3.3-3.4c1-1,2.1-1.5,3.4-1.5c1.1,0.1,2.1,0.5,2.9,1.5
			c0.9,0.9,1.2,2,1.2,3.1c-0.1,1.2-0.5,2.3-1.4,3.2l-7,7.1c-3.7,3.8-5.5,10.3-1.7,16.3c0.5,0.8,1.3,1.7,2.1,2.5
			c0.7,0.7,1.6,1.5,2.5,2.1c5.1,3.3,11.7,2.7,16-1.6c1.9-1.9,4.5-1.9,6.3,0c1.7,1.7,1.8,4.6,0,6.5l-31.1,31.7L151.8,30L171,10.5z
			 M32.1,286.5c-7.5,7.6-15.4,3.6-18.9,0c-3.5-3.6-7.5-11.6,0-19.3l40.3-41.1l18.9,19.3L32.1,286.5z M214.1,249.8l-111.2-44.5
			c0,0-0.7,0-1.2-0.1l-1.6-0.5l-1.2,1.3c0,0-0.5,0.2-0.7,0.4l-25.3,25.6l-6-6.1L95,197c1-1,2-1.7,5.3,0.1l115.4,43.4l32.1-32.7
			c1.9-1.8,4.2-4.1,4.2-7.6c0-0.6-0.1-1.3-0.3-1.8c-0.1-0.3,0-0.5-0.1-0.6c-0.7-2.4-2.4-4.3-3.7-5.5l-4.9-5l6.4-6.5l15.5,15.8
			c1.1,1.1,1.9,2.3,1.6,3.9c0,0.4,0,0.6-0.2,1c-0.4,0.7-1,1.5-1.8,2.3l-44.7,45.6c-0.5,0.6-1,1.1-1.3,1.5c-1.2,1-2,0.7-4.5-0.7
			V249.8z"/>
	</g>
</g>
</svg>
