<svg width="57" height="50" viewBox="0 0 57 50" fill="none" xmlns="http://www.w3.org/2000/svg">
<g clip-path="url(#clip0_1114_344)">
<path d="M47.2492 5.98709C49.6764 8.41428 53.6003 8.41428 56.0275 5.98709C56.8366 5.21848 56.8568 3.92399 56.068 3.13515C55.2994 2.32609 54.0049 2.30586 53.216 3.0947L53.1756 3.13515C52.3261 3.98467 50.9506 3.98467 50.1214 3.13515C47.8358 0.849552 44.195 0.748419 41.7476 2.7913C41.3228 2.60926 40.8981 2.46767 40.4531 2.38677L26.0113 0.0607171C24.2921 -0.202228 22.5526 0.343889 21.3188 1.57771L1.57767 21.3188C-0.52589 23.4224 -0.52589 26.8609 1.57767 28.9644L18.3455 45.7322C18.9725 46.3593 19.7006 46.7638 20.4693 47.0267C21.3794 48.8269 23.2403 49.9798 25.2629 49.9798H48.9887C51.9822 49.9798 54.3892 47.5526 54.3892 44.5793V16.6667C54.3892 14.9272 53.5396 13.2889 52.144 12.2775L44.9434 7.07933L44.9029 6.87706C44.8422 6.47253 44.7209 6.08823 44.5591 5.72415C45.3884 5.19826 46.5008 5.25894 47.2087 5.98709H47.2492ZM50.3439 16.6667V44.5793C50.3439 45.3277 49.7371 45.9547 48.9887 45.9547H25.7686C25.7686 45.9547 25.9304 45.8334 26.0113 45.7525L45.7524 26.0114C46.9862 24.7775 47.5526 23.0381 47.2694 21.3188L45.894 12.7225L49.818 15.5542C50.1618 15.8172 50.3843 16.2217 50.3843 16.6667H50.3439ZM4.04531 25.1416C4.04531 24.7775 4.18689 24.4337 4.44984 24.1708L24.1909 4.44988C24.4943 4.14648 24.9393 4.00489 25.3641 4.06557L38.3091 6.1489L36.9943 7.46363C34.7492 6.4523 31.8973 6.81638 30.1173 8.61654C27.7508 10.983 27.7508 14.8463 30.1173 17.2128C31.3107 18.4062 32.8479 18.9928 34.4053 18.9928C35.9628 18.9928 37.5202 18.4062 38.6934 17.2128C40.5138 15.3924 40.979 12.6214 39.8665 10.3156L41.161 9.02107L43.2443 21.9863C43.305 22.411 43.1634 22.856 42.86 23.1594L23.1189 42.9005C22.593 43.4264 21.7233 43.4264 21.1974 42.9005L4.44984 26.1125C4.18689 25.8496 4.04531 25.5057 4.04531 25.1416ZM35.8617 14.3407C35.0728 15.1295 33.7783 15.1295 32.9895 14.3407C32.2411 13.5114 32.3018 12.2169 33.1311 11.4685C33.8997 10.7606 35.093 10.7606 35.8617 11.4685C36.6505 12.2573 36.6505 13.5518 35.8617 14.3407Z" fill="#4976B3"/>
<path d="M21.2985 22.9572H21.4199C24.1909 22.9572 26.4563 20.7525 26.4765 17.9815C26.4765 17.9208 26.4765 17.8601 26.4765 17.7994C26.4159 14.988 24.0696 12.6417 21.2379 12.5608C19.8625 12.5203 18.5073 13.0462 17.5364 14.0373C16.5655 15.0082 16.0194 16.3634 16.0599 17.7388C16.1206 20.5502 18.4668 22.8965 21.2985 22.9774V22.9572ZM20.1052 17.6376C20.085 17.0915 20.4895 16.6263 21.0356 16.6061C21.0558 16.6061 21.0761 16.6061 21.1165 16.6061H21.157C21.8447 16.6465 22.411 17.1926 22.4312 17.8803C22.4312 18.1635 22.3503 18.4265 22.1481 18.6287C22.0065 18.7703 21.7435 18.8917 21.3997 18.9119C20.712 18.8714 20.1456 18.3253 20.1254 17.6376H20.1052ZM21.6829 39.1789H21.8042C24.5752 39.1789 26.8406 36.954 26.8608 34.1829C26.8608 34.1223 26.8608 34.0616 26.8608 34.0009C26.8002 31.1894 24.4539 28.8431 21.6222 28.7622C20.3074 28.7824 18.9118 29.2477 17.9207 30.2388C16.9498 31.2096 16.4037 32.5648 16.4442 33.9402C16.5049 36.7517 18.8511 39.098 21.6829 39.1789ZM20.7929 33.1109C20.9749 32.9289 21.2379 32.8075 21.521 32.8278H21.5413C22.229 32.8682 22.7953 33.4143 22.8155 34.102C22.8155 34.3852 22.7346 34.6481 22.5324 34.8504C22.3301 35.0324 22.0672 35.1336 21.784 35.1336C21.0963 35.0931 20.5299 34.547 20.5097 33.8593C20.5097 33.5761 20.5906 33.3132 20.7929 33.1109ZM28.7824 28.0745H28.8228C29.9353 28.0341 30.8252 27.1036 30.7848 25.9912C30.7443 24.9394 29.9151 24.0899 28.8633 24.0292L14.0777 23.6854C12.9652 23.6854 12.0348 24.5551 12.0146 25.6676C11.9943 26.78 12.8641 27.7104 13.9968 27.7307L28.7824 28.0745Z" fill="#4976B3"/>
</g>
<defs>
<clipPath id="clip0_1114_344">
<rect width="56.6545" height="50" fill="white"/>
</clipPath>
</defs>
</svg>
