<svg width="37" height="50" viewBox="0 0 37 50" fill="none" xmlns="http://www.w3.org/2000/svg">
<g clip-path="url(#clip0_1114_368)">
<path d="M36.9877 18.3545C37.0044 8.22787 28.8098 0.0166809 18.6999 2.53447e-05C8.57331 -0.0166302 0.362115 8.17791 0.345459 18.2878C0.345459 22.968 2.1276 27.4817 5.34213 30.8961V48.3345C5.34213 49.2505 6.09163 50 7.00768 50C7.22421 50 7.45738 49.9501 7.65725 49.8668L18.6666 45.1533L29.6759 49.8668C29.8758 49.9501 30.1089 50 30.3255 50C30.6586 50 30.975 49.9001 31.2415 49.7169C31.7079 49.4171 31.991 48.8841 31.991 48.3345V30.8961C35.1889 27.4984 36.971 23.018 36.9877 18.3545ZM18.6666 3.36445C26.9444 3.36445 33.6566 10.0766 33.6566 18.3545C33.6566 26.6323 26.9444 33.3445 18.6666 33.3445C10.3888 33.3445 3.67657 26.6323 3.67657 18.3545C3.67657 10.0766 10.3888 3.36445 18.6666 3.36445ZM19.3161 41.8055C18.8998 41.6223 18.4334 41.6223 18.017 41.8055L8.67324 45.8028V33.6942C14.7525 37.6416 22.5806 37.6416 28.6599 33.6942V45.8028L19.3161 41.8055Z" fill="#4976B3"/>
<path d="M9.03971 20.4865L9.37282 20.7363C9.93911 21.1361 10.1723 21.8523 9.95576 22.5018L9.82252 22.9016C9.0064 25.4832 10.4554 28.248 13.037 29.0641C14.5194 29.5305 16.135 29.264 17.4008 28.3479L17.7339 28.1148C18.2835 27.6984 19.0497 27.6984 19.5993 28.1148L19.9324 28.3479C22.2309 29.8802 25.3288 29.2473 26.8612 26.9489C27.6606 25.7497 27.8938 24.2507 27.5107 22.8516L27.3775 22.4519C27.161 21.8023 27.3941 21.0861 27.9604 20.6864L28.2935 20.4365C30.4255 18.6711 30.7253 15.5232 28.9598 13.4079C28.0604 12.3253 26.7446 11.6591 25.3288 11.5924H24.9125C24.2296 11.5591 23.6466 11.1261 23.4135 10.4932L23.3468 10.0268C22.3808 7.44521 19.4994 6.12942 16.9178 7.09544C15.5687 7.59511 14.4861 8.67772 13.9864 10.0268L13.8532 10.4266C13.62 11.0595 13.037 11.4925 12.3542 11.5258H12.0044C9.23957 11.6424 7.10766 13.9908 7.24091 16.739C7.30753 18.1714 7.99041 19.5205 9.10633 20.4199L9.03971 20.4865ZM10.4221 16.0228C10.622 15.3233 11.2882 14.8736 12.0044 14.9236H12.4208C14.5194 14.9236 16.4015 13.5745 17.101 11.5924L17.2176 11.2094C17.6007 10.3766 18.5833 10.0102 19.4161 10.3766C19.7825 10.5431 20.0823 10.8429 20.2489 11.2094L20.3655 11.5924C21.0317 13.6078 22.9138 14.9735 25.0457 15.0068H25.3288C26.1949 15.0068 26.9111 15.7064 26.9111 16.5891C26.9111 17.1054 26.6613 17.5718 26.2616 17.8716L25.9284 18.1214C24.1963 19.3706 23.4801 21.5858 24.1463 23.6178L24.2795 24.0175C24.4461 24.9169 23.8632 25.7996 22.9471 25.9662C22.564 26.0328 22.1643 25.9662 21.8312 25.783L21.4981 25.5498C19.7659 24.3173 17.4341 24.3173 15.7019 25.5498L15.3688 25.783C14.5694 26.2327 13.5534 25.9495 13.1037 25.1334C12.9205 24.7836 12.8538 24.4006 12.9205 24.0175L13.0537 23.6178C13.7199 21.5858 13.0037 19.3706 11.2716 18.1214L10.9384 17.8716C10.3555 17.4552 10.139 16.689 10.4221 16.0228Z" fill="#4976B3"/>
</g>
<defs>
<clipPath id="clip0_1114_368">
<rect width="36.6422" height="50" fill="white" transform="translate(0.345459)"/>
</clipPath>
</defs>
</svg>
