<svg width="43" height="50" viewBox="0 0 43 50" fill="none" xmlns="http://www.w3.org/2000/svg">
<path d="M26.1977 0H16.6739C15.3644 0 14.2929 1.07143 14.2929 2.38095C14.2929 3.69048 15.3644 4.7619 16.6739 4.7619H26.1977C27.5072 4.7619 28.5786 3.69048 28.5786 2.38095C28.5786 1.07143 27.5072 0 26.1977 0ZM21.4358 30.9524C22.7453 30.9524 23.8167 29.881 23.8167 28.5714V19.0476C23.8167 17.7381 22.7453 16.6667 21.4358 16.6667C20.1263 16.6667 19.0548 17.7381 19.0548 19.0476V28.5714C19.0548 29.881 20.1263 30.9524 21.4358 30.9524ZM38.1739 15.2143L39.9596 13.4286C40.8644 12.5238 40.8882 11.0238 39.9596 10.0952H39.9358C39.0072 9.14286 37.531 9.16667 36.6025 10.0714L34.8167 11.8571C31.1263 8.90476 26.4834 7.14286 21.4358 7.14286C10.0072 7.14286 0.292928 16.5714 0.00721396 28C-0.30231 40.0952 9.38817 50 21.4358 50C33.4834 50 42.8644 40.4048 42.8644 28.5714C42.8644 23.5238 41.1025 18.881 38.1739 15.2143ZM21.4358 45.2381C12.2215 45.2381 4.76912 37.7857 4.76912 28.5714C4.76912 19.3571 12.2215 11.9048 21.4358 11.9048C30.6501 11.9048 38.1025 19.3571 38.1025 28.5714C38.1025 37.7857 30.6501 45.2381 21.4358 45.2381Z" fill="#4976B3"/>
</svg>
