<svg width="24" height="20" viewBox="0 0 24 20" fill="none" xmlns="http://www.w3.org/2000/svg">
<g clip-path="url(#clip0_1418_2561)">
<path d="M21 3.96722H19.6224C19.1448 3.96722 18.7584 4.35362 18.7584 4.83122C18.7584 5.30882 19.1448 5.69522 19.6224 5.69522H21C21.7008 5.69522 22.2696 6.26642 22.2696 6.96722V16.5048C22.2696 17.2056 21.7008 17.7768 21 17.7768H3.0024C2.3016 17.7768 1.7304 17.2056 1.7304 16.5048V6.96962C1.7304 6.26882 2.3016 5.69762 3.0024 5.69762H4.38C4.8576 5.69762 5.244 5.31122 5.244 4.83362C5.244 4.35602 4.8576 3.96962 4.38 3.96962H3.0024C1.3464 3.96722 0 5.31362 0 6.96962V16.5072C0 18.1632 1.3464 19.5096 3.0024 19.5096H21C22.6536 19.5096 24 18.1632 24 16.5072V6.96962C24 5.31362 22.6536 3.96722 21 3.96722Z" fill="#706F6F"/>
<path d="M4.65602 6.9864C4.31762 7.3248 4.31762 7.872 4.65602 8.208C4.82402 8.376 5.04722 8.4624 5.26802 8.4624C5.48882 8.4624 5.70962 8.3784 5.88002 8.2104L11.136 2.952V16.0344C11.136 16.512 11.5224 16.8984 12 16.8984C12.4776 16.8984 12.864 16.512 12.864 16.0344V2.952L18.1224 8.2104C18.2904 8.3784 18.5136 8.4624 18.7344 8.4624C18.9552 8.4624 19.176 8.3784 19.3464 8.208C19.6848 7.8696 19.6848 7.3224 19.3464 6.9864L12.612 0.2544C12.4464 0.0888 12.2328 0.0048 12.0168 0C12.012 0 12.0072 0 12 0C11.9904 0 11.9784 0.0024 11.9688 0.0024C11.7576 0.0096 11.5488 0.0912 11.388 0.252L4.65602 6.9864Z" fill="#706F6F"/>
</g>
<defs>
<clipPath id="clip0_1418_2561">
<rect width="24" height="19.5072" fill="white"/>
</clipPath>
</defs>
</svg>
